<svg width="154.000000" height="51.000000" viewBox="0 0 154 51" fill="none" xmlns="http://www.w3.org/2000/svg" xmlns:xlink="http://www.w3.org/1999/xlink">
	<desc>
			Created with Pixso.
	</desc>
	<defs>
		<clipPath id="clip3_228">
			<rect id="Frame" width="16.000000" height="16.000000" transform="translate(106.000000 17.000000)" fill="white" fill-opacity="0"/>
		</clipPath>
	</defs>
	<rect id="Button/Hire me" rx="5.000000" width="154.000000" height="51.000000" fill="#FFB400" fill-opacity="1.000000"/>
	<path id="HIRE ME" d="M33.5756 32L35.3335 32L35.3335 26.9258L41.1342 26.9258L41.1342 32L42.896 32L42.896 20.3633L41.1342 20.3633L41.1342 25.4219L35.3335 25.4219L35.3335 20.3633L33.5756 20.3633L33.5756 32ZM47.2085 20.3633L45.4506 20.3633L45.4506 32L47.2085 32L47.2085 20.3633ZM49.7631 32L51.521 32L51.521 27.5977L53.9077 27.5977C53.9467 27.5977 53.9819 27.5977 54.021 27.5977L56.3842 32L58.3842 32L55.8022 27.2891C57.2319 26.7617 57.9389 25.5742 57.9389 24.0117C57.9389 21.8711 56.6108 20.3633 53.9116 20.3633L49.7631 20.3633L49.7631 32ZM51.521 26.0859L51.521 21.8711L53.7241 21.8711C55.4585 21.8711 56.1733 22.6914 56.1733 24.0117C56.1733 25.3242 55.4585 26.0859 53.7475 26.0859L51.521 26.0859ZM60.0813 32L67.4446 32L67.4446 30.4883L61.8391 30.4883L61.8391 26.9258L66.9954 26.9258L66.9954 25.4219L61.8391 25.4219L61.8391 21.875L67.3782 21.875L67.3782 20.3633L60.0813 20.3633L60.0813 32ZM73.9677 20.3633L73.9677 32L75.6396 32L75.6396 23.5742L75.7489 23.5742L79.1786 31.9844L80.5653 31.9844L83.9989 23.5781L84.1044 23.5781L84.1044 32L85.7763 32L85.7763 20.3633L83.6435 20.3633L79.9403 29.4102L79.8036 29.4102L76.1005 20.3633L73.9677 20.3633ZM88.3313 32L95.6946 32L95.6946 30.4883L90.0891 30.4883L90.0891 26.9258L95.2454 26.9258L95.2454 25.4219L90.0891 25.4219L90.0891 21.875L95.6282 21.875L95.6282 20.3633L88.3313 20.3633L88.3313 32Z" fill="#18191A" fill-opacity="1.000000" fill-rule="evenodd"/>
	<rect id="Frame" width="16.000000" height="16.000000" transform="translate(106.000000 17.000000)" fill="#FFFFFF" fill-opacity="0"/>
	<g clip-path="url(#clip3_228)">
		<path id="Vector" d="M116.781 24.333L113.205 20.7573L114.148 19.8145L119.333 25L114.148 30.1851L113.205 29.2427L116.781 25.6665L108.667 25.6665L108.667 24.333L116.781 24.333Z" fill="#18191A" fill-opacity="1.000000" fill-rule="nonzero"/>
	</g>
</svg>
