<svg width="14.000000" height="14.000000" viewBox="0 0 14 14" fill="none" xmlns="http://www.w3.org/2000/svg" xmlns:xlink="http://www.w3.org/1999/xlink">
	<desc>
			Created with Pixso.
	</desc>
	<defs>
		<clipPath id="clip3_94">
			<rect id="Icons-Youtube" width="14.000000" height="14.000000" fill="white" fill-opacity="0"/>
		</clipPath>
	</defs>
	<rect id="Icons-Youtube" width="14.000000" height="14.000000" fill="#FFFFFF" fill-opacity="0"/>
	<g clip-path="url(#clip3_94)">
		<path id="Vector" d="M12.5669 3.79053C12.8335 4.83008 12.8335 7 12.8335 7C12.8335 7 12.8335 9.16992 12.5669 10.2095C12.4187 10.7842 11.9854 11.2363 11.4363 11.3892C10.4395 11.667 7 11.667 7 11.667C7 11.667 3.5625 11.667 2.56372 11.3892C2.0127 11.2339 1.57983 10.7827 1.43335 10.2095C1.16675 9.16992 1.16675 7 1.16675 7C1.16675 7 1.16675 4.83008 1.43335 3.79053C1.58154 3.21631 2.01489 2.76416 2.56372 2.61133C3.5625 2.3335 7 2.3335 7 2.3335C7 2.3335 10.4395 2.3335 11.4363 2.61133C11.9875 2.76611 12.4204 3.21777 12.5669 3.79053ZM5.8335 9.04199L9.3335 7L5.8335 4.9585L5.8335 9.04199Z" fill="#1B1B1B" fill-opacity="1.000000" fill-rule="nonzero"/>
	</g>
</svg>
