<svg width="14.000000" height="14.000000" viewBox="0 0 14 14" fill="none" xmlns="http://www.w3.org/2000/svg" xmlns:xlink="http://www.w3.org/1999/xlink">
	<desc>
			Created with Pixso.
	</desc>
	<defs>
		<clipPath id="clip3_91">
			<rect id="Icons-dribbble" width="14.000000" height="14.000000" fill="white" fill-opacity="0"/>
		</clipPath>
	</defs>
	<rect id="Icons-dribbble" width="14.000000" height="14.000000" fill="#FFFFFF" fill-opacity="0"/>
	<g clip-path="url(#clip3_91)">
		<path id="Vector" d="M11.6604 6.75C11.6125 5.83203 11.2932 4.94873 10.7427 4.21191C10.575 4.39258 10.3958 4.56201 10.2061 4.71973C9.62329 5.20361 8.97192 5.59863 8.27344 5.89209C8.37085 6.09619 8.46021 6.29395 8.53882 6.48047L8.53882 6.48242C8.56104 6.53467 8.58252 6.58691 8.60303 6.64014C9.48633 6.54053 10.4172 6.57715 11.3196 6.69873C11.4399 6.71533 11.553 6.73291 11.6604 6.75ZM6.18579 2.4043C6.75415 3.20557 7.27856 4.03711 7.7561 4.89502C8.46948 4.61377 9.05933 4.25928 9.53418 3.86426C9.69897 3.72852 9.854 3.58154 9.99854 3.42383C9.15894 2.71777 8.09692 2.33154 7 2.33301C6.72705 2.33301 6.45459 2.35645 6.18579 2.40381L6.18579 2.4043ZM2.48096 5.83154C2.87842 5.82129 3.27539 5.79736 3.6709 5.75977C4.62744 5.67432 5.57568 5.51367 6.50708 5.28027C6.02026 4.43457 5.49487 3.61182 4.93213 2.81445C4.33105 3.1123 3.80127 3.53564 3.37842 4.05615C2.95532 4.57666 2.64941 5.18213 2.48096 5.83154ZM3.37354 9.93701C3.59985 9.60596 3.89722 9.23389 4.29224 8.8291C5.14038 7.95996 6.14136 7.2832 7.2998 6.91016L7.33618 6.89941C7.23975 6.68701 7.14941 6.49756 7.05835 6.31885C5.9873 6.63135 4.85913 6.82617 3.73511 6.92676C3.18677 6.97656 2.69507 6.99805 2.3335 7.00146C2.33228 8.0708 2.69995 9.10742 3.37402 9.93701L3.37354 9.93701ZM8.75293 11.3252C8.52808 10.1909 8.20972 9.07715 7.80103 7.99512C6.63306 8.41895 5.70264 9.03906 4.9834 9.77881C4.69312 10.0718 4.43555 10.3955 4.21533 10.7441C5.01953 11.3442 5.99658 11.668 7 11.6665C7.60083 11.6675 8.19604 11.5518 8.75293 11.3267L8.75293 11.3252ZM9.8457 10.6982C10.7563 9.99805 11.3767 8.98633 11.5879 7.85742C11.3896 7.80762 11.1382 7.7583 10.8618 7.71973C10.2471 7.63135 9.62329 7.62451 9.00684 7.7002C9.35376 8.67969 9.63403 9.68164 9.8457 10.6987L9.8457 10.6982ZM7 12.833C3.77832 12.833 1.16675 10.2217 1.16675 7C1.16675 3.77832 3.77832 1.1665 7 1.1665C10.2219 1.1665 12.8335 3.77832 12.8335 7C12.8335 10.2217 10.2219 12.833 7 12.833Z" fill="#2B2B2B" fill-opacity="1.000000" fill-rule="nonzero"/>
	</g>
</svg>
